# xmcd
#
# Track frame offsets: 
#        150
#        16622
#        30777
#        45956
#        52168
#        61999
#        75785
#        86280
#        99861
#        111880
#        122375
#        137064
#
# Disc length: 1990 seconds
#
# Revision: 1
# Processed by: cddbd v1.5.1PL0 Copyright (c) Steve Scherf et al.
# Submitted via: ExactAudioCopy v0.90b4
#
DISCID=7607c40c
DTITLE=Roberto Corrêa - Viola Caipira, Um Pequeno Concerto
DYEAR=1989
DGENRE=Viola
TTITLE0=Tristeza Do Jeca
TTITLE1=Araponga Isprivitada
TTITLE2=Bachianas Nº 2 - Tocata - Trenzinho do Caipira
TTITLE3=Lacuticho
TTITLE4=Siriema
TTITLE5=Boiada Cuiabana
TTITLE6=Jararaca Chateadera
TTITLE7=Chico Mineiro
TTITLE8=Pagode Em Brasília
TTITLE9=Requenquem
TTITLE10=Saudades De Matão
TTITLE11=Anti-Viola
EXTD=
EXTT0=
EXTT1=
EXTT2=
EXTT3=
EXTT4=
EXTT5=
EXTT6=
EXTT7=
EXTT8=
EXTT9=
EXTT10=
EXTT11=
PLAYORDER=
